<svg width="645" height="651" viewBox="0 0 645 651" fill="none" xmlns="http://www.w3.org/2000/svg">
<g opacity="0.1">
<path fill-rule="evenodd" clip-rule="evenodd" d="M248.339 -26.0586C374.331 -16.6233 491.816 55.5948 537.911 152.641C554.292 187.135 554.582 198.565 595.469 367.352C615.072 448.179 632.059 513.758 643.199 556.008L578.183 533.191C576.163 577.248 545.411 757.448 454.876 810.395C317.335 890.838 -39.9113 701.296 -101.697 417.811C-108.601 386.129 -148.047 187.016 -15.6965 60.24C79.9523 -31.3431 206.83 -29.1611 248.339 -26.0586Z" stroke="white" stroke-width="1.5" stroke-miterlimit="10"/>
<path fill-rule="evenodd" clip-rule="evenodd" d="M283.592 450.318V483.09H212.422V446.133C212.422 424.279 205.527 403.346 194.907 384.254C190.416 376.147 187.841 367.12 187.379 357.864C186.918 348.608 188.582 339.37 192.244 330.857C195.906 322.344 201.469 314.782 208.506 308.752C215.543 302.722 223.868 298.384 232.841 296.07C241.815 293.755 251.199 293.527 260.275 295.401C269.351 297.275 277.877 301.203 285.199 306.883C292.522 312.563 298.446 319.845 302.519 328.169C306.591 336.494 308.703 345.64 308.693 354.908C308.721 364.65 306.381 374.253 301.874 382.89C290.854 403.891 283.592 426.623 283.592 450.318Z" fill="white"/>
<path fill-rule="evenodd" clip-rule="evenodd" d="M253.734 166.961C253.734 49.4583 242.27 49.4583 242.27 166.961C242.27 284.464 253.734 284.455 253.734 166.961Z" stroke="white" stroke-width="1.5" stroke-miterlimit="10"/>
<path fill-rule="evenodd" clip-rule="evenodd" d="M357.66 198.019C416.412 96.2676 406.482 90.54 347.731 192.291C288.979 294.043 298.909 299.779 357.66 198.019Z" stroke="white" stroke-width="1.5" stroke-miterlimit="10"/>
<path fill-rule="evenodd" clip-rule="evenodd" d="M138.345 198.02C79.6023 96.269 89.5319 90.5328 148.275 192.293C207.017 294.053 197.096 299.78 138.345 198.02Z" stroke="white" stroke-width="1.5" stroke-miterlimit="10"/>
</g>
</svg>
