<svg width="16" height="14" viewBox="0 0 16 14" fill="none" xmlns="http://www.w3.org/2000/svg">
<path fill-rule="evenodd" clip-rule="evenodd" d="M3.47525 7.55671L9.98111 1.26436C11.5038 -0.258368 13.6553 -0.451947 15.0437 0.936461C16.3056 2.1983 16.062 3.88641 14.7332 5.50436C14.6746 5.57568 14.6135 5.64527 14.5524 5.71067L8.51505 11.9623L8.51737 11.9646C6.31842 14.2241 3.0237 14.6978 1.22932 12.9034C-0.619517 11.0546 -0.392593 8.36627 1.97553 5.81717L2.14833 5.63534L7.87604 0.19873L8.75914 1.12911L3.04991 6.54745C0.99049 8.66734 0.788353 10.6483 2.13637 11.9964C3.32469 13.1847 5.70258 12.884 7.43738 11.2291L7.49499 11.172L13.5459 4.90624C13.6152 4.83697 13.6806 4.76488 13.7419 4.69022C14.7005 3.523 14.8412 2.54803 14.1367 1.84351C13.323 1.02982 12.0494 1.10893 11.0093 2.05601L10.8805 2.17891L4.36768 8.47814C3.95722 8.89614 3.95954 9.56773 4.37466 9.98285C4.76429 10.3725 5.37986 10.3985 5.79031 10.0703L5.87496 9.99459L11.3252 4.2583L12.2551 5.14186L6.79346 10.8899C5.87505 11.8083 4.38602 11.8083 3.46761 10.8899C2.58747 10.0098 2.5508 8.60556 3.3576 7.68174L3.46761 7.56405L3.91695 8.01339L3.47525 7.55671Z" fill="white"/>
</svg>
