<svg width="17" height="18" viewBox="0 0 17 18" fill="none" xmlns="http://www.w3.org/2000/svg">
<path d="M13.7987 5.80078H2.59984C1.71627 5.80078 1 6.51705 1 7.40062V15.3998C1 16.2834 1.71627 16.9996 2.59984 16.9996H13.7987C14.6823 16.9996 15.3985 16.2834 15.3985 15.3998V7.40062C15.3985 6.51705 14.6823 5.80078 13.7987 5.80078Z" stroke="white" stroke-width="1.5" stroke-linecap="round" stroke-linejoin="round"/>
<path d="M8.19697 3.39976C8.19697 2.92513 8.05623 2.46116 7.79254 2.06652C7.52885 1.67189 7.15406 1.3643 6.71556 1.18267C6.27707 1.00104 5.79456 0.953517 5.32905 1.04611C4.86354 1.13871 4.43595 1.36726 4.10033 1.70287C3.76472 2.03849 3.53617 2.46608 3.44357 2.93159C3.35098 3.39709 3.3985 3.87961 3.58013 4.3181C3.76176 4.7566 4.06935 5.13139 4.46398 5.39508C4.85862 5.65877 5.32259 5.79951 5.79722 5.79951" stroke="white" stroke-width="1.5" stroke-linecap="round" stroke-linejoin="round"/>
<path d="M10.599 5.79951C11.0736 5.79951 11.5376 5.65877 11.9322 5.39508C12.3268 5.13139 12.6344 4.7566 12.8161 4.3181C12.9977 3.87961 13.0452 3.39709 12.9526 2.93159C12.86 2.46608 12.6315 2.03849 12.2959 1.70287C11.9602 1.36726 11.5327 1.13871 11.0671 1.04611C10.6016 0.953517 10.1191 1.00104 9.68063 1.18267C9.24213 1.3643 8.86734 1.67189 8.60365 2.06652C8.33996 2.46116 8.19922 2.92513 8.19922 3.39976" stroke="white" stroke-width="1.5" stroke-linecap="round" stroke-linejoin="round"/>
<path d="M8.19922 3.39746V16.9961" stroke="white" stroke-width="1.5" stroke-linecap="round" stroke-linejoin="round"/>
<path d="M15.3985 11.3965H1" stroke="white" stroke-width="1.5" stroke-linecap="round" stroke-linejoin="round"/>
</svg>
