<?xml version="1.0" standalone="no"?>
<!DOCTYPE svg PUBLIC "-//W3C//DTD SVG 1.1//EN" "http://www.w3.org/Graphics/SVG/1.1/DTD/svg11.dtd" >
<svg xmlns="http://www.w3.org/2000/svg">
<metadata>Generated by IcoMoon</metadata>
<defs>
<font id="icomoon" horiz-adv-x="1024">
<font-face units-per-em="1024" ascent="960" descent="-64" />
<missing-glyph horiz-adv-x="1024" />
<glyph unicode="&#x20;" horiz-adv-x="512" d="" />
<glyph unicode="&#xe900;" glyph-name="professional" d="M810.667 789.333h-46.933c-9.903 48.153-36.105 91.42-74.185 122.508-38.084 31.088-85.722 48.097-134.882 48.159h-85.333c-49.161-0.062-96.797-17.071-134.88-48.159s-64.284-74.355-74.187-122.508h-46.933c-56.559-0.068-110.781-22.566-150.775-62.559s-62.491-94.216-62.559-150.775v-128h1024v128c-0.068 56.559-22.566 110.781-62.558 150.775-39.996 39.993-94.217 62.491-150.775 62.559zM349.184 789.333c8.793 24.871 25.055 46.417 46.562 61.692s47.206 23.532 73.587 23.641h85.333c26.381-0.109 52.079-8.366 73.587-23.641s37.769-36.821 46.562-61.692h-325.632zM554.667 320c0-11.315-4.497-22.17-12.497-30.17s-18.854-12.497-30.17-12.497c-11.315 0-22.17 4.497-30.17 12.497s-12.497 18.854-12.497 30.17v42.667h-469.333v-213.333c0.068-56.559 22.566-110.78 62.559-150.775 39.993-39.991 94.216-62.49 150.775-62.558h597.333c56.559 0.068 110.78 22.566 150.775 62.558 39.991 39.996 62.49 94.217 62.558 150.775v213.333h-469.333v-42.667z" />
<glyph unicode="&#xe901;" glyph-name="socail" d="M320 405.333c-37.974 0-75.095 11.26-106.67 32.358s-56.183 51.085-70.715 86.165c-14.532 35.084-18.334 73.689-10.926 110.933s25.694 71.456 52.546 98.307c26.852 26.852 61.063 45.138 98.307 52.546s75.849 3.606 110.933-10.926c35.081-14.532 65.068-39.141 86.166-70.716s32.358-68.695 32.358-106.669c-0.055-50.904-20.305-99.708-56.299-135.701s-84.797-56.243-135.701-56.299zM597.333-64h-554.667c-11.316 0-22.168 4.497-30.17 12.497s-12.497 18.854-12.497 30.17v21.333c0 84.868 33.714 166.263 93.726 226.274s141.405 93.726 226.274 93.726c84.869 0 166.263-33.715 226.274-93.726s93.726-141.406 93.726-226.274v-21.333c0-11.315-4.497-22.17-12.497-30.17s-18.854-12.497-30.17-12.497zM746.667 576c-37.973 0-75.093 11.261-106.671 32.358-31.573 21.097-56.183 51.084-70.716 86.167s-18.334 73.688-10.923 110.932c7.407 37.245 25.694 71.456 52.544 98.307 26.854 26.852 61.065 45.138 98.308 52.546s75.849 3.606 110.933-10.926c35.081-14.532 65.067-39.141 86.165-70.716s32.358-68.695 32.358-106.669c-0.055-50.904-20.305-99.707-56.299-135.702s-84.796-56.241-135.701-56.298zM686.037 489.771c-39.74-5.333-77.948-18.812-112.235-39.599-34.287-20.783-63.91-48.422-87.019-81.19 95.612-43.422 170.735-122.121 209.664-219.648h284.885c11.315 0 22.17 4.497 30.17 12.497s12.497 18.854 12.497 30.17v1.621c-0.043 42.53-9.161 84.561-26.739 123.285-17.583 38.729-43.221 73.259-75.209 101.286-31.987 28.032-69.585 48.913-110.285 61.257s-83.563 15.863-125.73 10.321z" />
<glyph unicode="&#xe902;" glyph-name="rocet" d="M996.309 932.3c-12.591 12.728-28.578 21.567-46.054 25.463-17.472 3.896-35.699 2.685-52.506-3.49l-9.216-3.285c-206.374-67.126-394.261-181.44-548.736-333.867-38.767-39.792-74.041-82.845-105.429-128.682-59.733-85.333-71.083-178.731 2.304-252.16l1.664-1.621-97.835-97.835c-7.999-8-12.492-18.854-12.492-30.165 0-11.315 4.494-22.165 12.492-30.165 8.001-8 18.852-12.493 30.165-12.493s22.164 4.493 30.165 12.493l97.835 97.835 1.621-1.664c73.429-73.387 167.040-61.952 252.16-2.304 45.837 31.39 88.892 66.662 128.683 105.429 152.431 154.487 266.748 342.387 333.867 548.778l3.285 9.216c6.174 16.799 7.39 35.020 3.49 52.488-3.895 17.469-12.736 33.447-25.463 46.029zM469.333 362.658c-8.439 0-16.687 2.5-23.706 7.189-7.014 4.689-12.484 11.354-15.714 19.149s-4.073 16.375-2.428 24.653c1.647 8.277 5.709 15.876 11.678 21.845 5.965 5.965 13.568 10.031 21.845 11.678s16.858 0.802 24.653-2.428c7.795-3.23 14.46-8.7 19.149-15.714 4.689-7.019 7.189-15.266 7.189-23.706 0-11.315-4.497-22.17-12.497-30.17-8-8.004-18.854-12.497-30.17-12.497zM597.333 490.658c-8.439 0-16.687 2.5-23.706 7.189-7.014 4.689-12.484 11.354-15.714 19.149s-4.075 16.375-2.428 24.652c1.647 8.276 5.709 15.879 11.678 21.846 5.965 5.967 13.568 10.031 21.845 11.677s16.858 0.801 24.653-2.428c7.795-3.229 14.46-8.698 19.149-15.715s7.189-15.265 7.189-23.703c0-11.315-4.497-22.17-12.497-30.17-8-8.004-18.854-12.497-30.17-12.497zM725.333 618.657c-8.439 0-16.687 2.502-23.706 7.191-7.014 4.689-12.484 11.352-15.714 19.148s-4.075 16.375-2.428 24.652c1.647 8.276 5.709 15.879 11.678 21.846 5.965 5.967 13.568 10.031 21.845 11.677s16.858 0.801 24.653-2.428c7.795-3.229 14.46-8.698 19.149-15.715s7.189-15.266 7.189-23.704c0-11.316-4.497-22.168-12.497-30.17s-18.854-12.497-30.17-12.497zM100.821 403.703c-13.238-0.004-26.348 2.594-38.58 7.659-12.232 5.060-23.347 12.484-32.709 21.841-9.363 9.361-16.79 20.471-21.857 32.704-5.067 12.228-7.675 25.335-7.675 38.575 0.103 26.283 10.254 51.53 28.373 70.57 72.89 74.929 171.257 119.758 275.627 125.611-8.149-7.765-16.469-15.147-24.533-23.211-42.255-43.249-80.724-90.041-114.987-139.861-28.813-39.918-48.877-85.469-58.88-133.674l-4.779-0.213zM469.333 41.591c48.209 9.984 93.764 30.050 133.675 58.88 49.903 34.24 96.768 72.713 140.075 114.987 8.107 8.064 15.445 16.384 23.253 24.533-5.888-104.371-50.731-202.731-125.653-275.627-19.021-18.121-44.258-28.271-70.528-28.373-26.739 0-52.382 10.62-71.292 29.53-18.906 18.906-29.53 44.553-29.53 71.292v4.779z" />
<glyph unicode="&#xe903;" glyph-name="magic" d="M549.683 310.775l-338.558-338.56c-11.381-11.951-25.038-21.504-40.166-28.096s-31.423-10.095-47.925-10.295c-16.502-0.201-32.877 2.901-48.162 9.122-15.284 6.225-29.17 15.441-40.84 27.11s-20.886 25.553-27.109 40.841c-6.222 15.283-9.324 31.659-9.123 48.162 0.201 16.499 3.701 32.794 10.294 47.923s16.146 28.787 28.096 40.166l338.56 338.56 174.932-174.933zM729.609 665.591c-23.552 22.513-54.882 35.077-87.467 35.077-32.58 0-63.91-12.564-87.467-35.077l-119.467-119.467 174.933-174.933 119.467 119.467c23.189 23.202 36.215 54.664 36.215 87.467s-13.026 64.265-36.215 87.467zM207.498 740.471l66.133-18.858 18.859-66.134c3.038-10.612 9.449-19.946 18.263-26.591s19.552-10.239 30.59-10.239c11.038 0 21.776 3.594 30.59 10.239s15.225 15.979 18.263 26.591l18.859 66.134 66.132 18.858c10.615 3.038 19.947 9.449 26.594 18.263 6.643 8.814 10.236 19.552 10.236 30.59s-3.593 21.777-10.236 30.591c-6.647 8.814-15.979 15.225-26.594 18.263l-66.132 18.859-18.859 66.134c-3.038 10.612-9.449 19.946-18.263 26.591s-19.552 10.239-30.59 10.239c-11.038 0-21.776-3.594-30.59-10.239s-15.225-15.979-18.263-26.591l-18.859-66.134-66.133-18.859c-10.612-3.038-19.946-9.449-26.591-18.263s-10.239-19.552-10.239-30.591c0-11.038 3.594-21.776 10.239-30.59s15.979-15.225 26.591-18.263zM719.497 228.471l66.133-18.859 18.859-66.133c3.038-10.611 9.451-19.947 18.266-26.59 8.815-6.647 19.55-10.24 30.588-10.24s21.777 3.593 30.592 10.24c8.815 6.643 15.223 15.979 18.261 26.59l18.859 66.133 66.133 18.859c10.615 3.038 19.947 9.451 26.594 18.261 6.643 8.815 10.236 19.554 10.236 30.592s-3.593 21.777-10.236 30.592c-6.647 8.811-15.979 15.223-26.594 18.261l-66.133 18.859-18.859 66.133c-3.038 10.611-9.446 19.947-18.261 26.59-8.815 6.647-19.554 10.24-30.592 10.24s-21.773-3.593-30.588-10.24c-8.815-6.643-15.228-15.979-18.266-26.59l-18.859-66.133-66.133-18.859c-10.611-3.038-19.942-9.451-26.59-18.261-6.643-8.815-10.24-19.554-10.24-30.592s3.597-21.777 10.24-30.592c6.647-8.811 15.979-15.223 26.59-18.261zM757.598 767.991l57.813-16.512 16.597-57.898c2.705-9.224 8.32-17.324 16.013-23.087s17.045-8.877 26.654-8.877c9.613 0 18.965 3.115 26.658 8.877s13.308 13.862 16.009 23.087l16.512 57.813 57.899 16.597c9.225 2.702 17.327 8.319 23.087 16.011 5.764 7.692 8.879 17.044 8.879 26.656s-3.115 18.964-8.879 26.656c-5.76 7.692-13.862 13.309-23.087 16.011l-57.813 16.512-16.597 57.899c-2.701 9.224-8.316 17.324-16.009 23.086s-17.045 8.877-26.658 8.877c-9.609 0-18.961-3.115-26.654-8.877s-13.308-13.863-16.013-23.086l-16.512-57.814-57.899-16.597c-9.22-2.701-17.323-8.319-23.083-16.011-5.764-7.692-8.879-17.044-8.879-26.656s3.115-18.963 8.879-26.656c5.76-7.692 13.862-13.309 23.083-16.011z" />
<glyph unicode="&#xe904;" glyph-name="backspace" horiz-adv-x="1170" d="M926.508 935.642h-441c-37.146 0.115-73.821-8.318-107.186-24.645s-62.527-40.112-85.229-69.514l-282.819-363.52c-6.659-8.56-10.274-19.095-10.274-29.94s3.615-21.38 10.274-29.94l282.819-363.519c22.702-29.403 51.863-53.189 85.229-69.515s70.039-24.759 107.186-24.649h441c64.644 0.080 126.61 25.79 172.317 71.497s71.417 107.674 71.497 172.317v487.617c-0.080 64.639-25.79 126.607-71.497 172.314s-107.674 71.418-172.317 71.495zM1072.794 204.215c0-38.802-15.411-76.010-42.847-103.439-27.429-27.436-64.636-42.847-103.439-42.847h-441c-22.289-0.080-44.297 4.974-64.32 14.768-20.023 9.787-37.524 24.057-51.149 41.699l-259.462 333.627 259.462 333.629c13.624 17.64 31.126 31.908 51.149 41.699s42.031 14.844 64.32 14.767h441c38.802 0 76.010-15.412 103.439-42.846 27.436-27.434 42.847-64.642 42.847-103.44v-487.617zM839.080 535.453l-87.428-87.43 87.428-87.43c4.659-4.498 8.375-9.879 10.928-15.828s3.899-12.348 3.957-18.823c0.059-6.475-1.178-12.895-3.628-18.888s-6.071-11.437-10.65-16.015c-4.579-4.579-10.028-8.199-16.018-10.651s-12.412-3.686-18.885-3.629c-6.48 0.056-12.873 1.401-18.827 3.957-5.947 2.556-11.33 6.271-15.828 10.928l-87.428 87.43-87.431-87.43c-9.196-8.882-21.514-13.797-34.299-13.686s-25.016 5.24-34.056 14.28c-9.041 9.041-14.169 21.271-14.28 34.056s4.804 25.103 13.686 34.3l87.43 87.43-87.43 87.43c-8.882 9.197-13.798 21.514-13.686 34.3s5.239 25.015 14.28 34.056c9.040 9.040 21.271 14.169 34.056 14.28s25.103-4.804 34.299-13.686l87.431-87.43 87.428 87.43c9.201 8.882 21.519 13.797 34.304 13.686s25.015-5.24 34.055-14.28c9.040-9.041 14.168-21.271 14.277-34.056s-4.805-25.103-13.685-34.3z" />
<glyph unicode="&#xe905;" glyph-name="time" horiz-adv-x="983" d="M577.618 955.586c-5.947 1.095-12.063 0.868-17.916-0.664-5.849-1.532-11.293-4.332-15.942-8.201s-8.389-8.713-10.957-14.189c-2.568-5.476-3.899-11.449-3.903-17.498v-118.766c-49.947 6.627-100.749 1.661-148.471-14.51-47.72-16.172-91.074-43.117-126.702-78.744s-62.573-78.982-78.744-126.702c-16.172-47.718-21.137-98.521-14.511-148.472h-118.766c-6.048 0-12.022-1.335-17.497-3.903s-10.32-6.308-14.189-10.957c-3.869-4.649-6.669-10.093-8.201-15.942-1.532-5.853-1.759-11.969-0.664-17.916 16.336-88.756 56.625-171.356 116.509-238.871 59.884-67.518 137.085-117.379 223.255-144.191 86.171-26.817 178.032-29.565 265.653-7.95 87.618 21.615 167.662 66.769 231.477 130.585 63.812 63.812 108.97 143.856 130.58 231.477 21.615 87.618 18.866 179.479-7.946 265.651-26.817 86.17-76.677 163.371-144.191 223.255-67.518 59.884-150.118 100.172-238.875 116.509zM487.649 386.589c-14.426 0.041-28.586 3.875-41.062 11.112-12.476 7.242-22.827 17.637-30.020 30.138h-93.93c-10.941 0-21.434 4.346-29.17 12.083s-12.083 18.231-12.083 29.172c0 10.94 4.346 21.434 12.083 29.168 7.736 7.737 18.229 12.083 29.17 12.083h93.93c7.193 12.358 17.469 22.639 29.827 29.827v135.184c0 10.941 4.346 21.434 12.083 29.17s18.227 12.083 29.172 12.083c10.94 0 21.43-4.346 29.168-12.083s12.083-18.229 12.083-29.17v-135.184c15.737-9.040 28.041-23.028 34.996-39.789 6.959-16.761 8.18-35.353 3.469-52.875-4.706-17.527-15.077-33.006-29.495-44.024s-32.076-16.957-50.221-16.896zM403.987 960c8.161 0 16.136-2.419 22.919-6.952s12.071-10.976 15.192-18.514c3.125-7.538 3.94-15.832 2.351-23.835-1.593-8.002-5.521-15.353-11.293-21.122-5.767-5.769-13.119-9.699-21.123-11.29-8-1.592-16.295-0.775-23.833 2.348s-13.981 8.409-18.514 15.194c-4.533 6.784-6.952 14.76-6.952 22.919 0 10.941 4.346 21.433 12.083 29.17s18.229 12.083 29.17 12.083zM234.851 887.56c8.159 0 16.135-2.419 22.919-6.952s12.071-10.976 15.194-18.514c3.122-7.538 3.94-15.833 2.348-23.835s-5.521-15.353-11.29-21.122c-5.769-5.769-13.12-9.698-21.122-11.29s-16.297-0.775-23.835 2.347c-7.538 3.122-13.981 8.41-18.514 15.194s-6.952 14.76-6.952 22.919c-0.022 10.934 4.298 21.429 12.009 29.179s18.185 12.123 29.119 12.156l0.124-0.083zM107.257 764.421c8.159 0 16.135-2.42 22.918-6.953s12.072-10.976 15.194-18.514c3.122-7.538 3.939-15.832 2.347-23.835s-5.521-15.353-11.29-21.122c-5.769-5.77-13.119-9.699-21.122-11.29s-16.297-0.775-23.835 2.347c-7.538 3.122-13.981 8.41-18.514 15.194s-6.953 14.76-6.953 22.919c0 10.941 4.346 21.434 12.083 29.17s18.229 12.083 29.17 12.083zM41.252 592.522c8.159 0 16.135-2.42 22.919-6.953s12.072-10.976 15.194-18.514c3.122-7.538 3.94-15.832 2.348-23.836-1.592-7.999-5.521-15.352-11.29-21.119-5.769-5.771-13.119-9.699-21.122-11.293-8.002-1.589-16.297-0.774-23.835 2.347-7.538 3.125-13.981 8.413-18.514 15.196s-6.952 14.758-6.952 22.918c0 10.927 4.335 21.407 12.053 29.141s18.19 12.090 29.117 12.112h0.082z" />
<glyph unicode="&#xe906;" glyph-name="icon4" horiz-adv-x="985" d="M295.385 891.077c-92.444 0-167.385-74.941-167.385-167.385v-233.027h856.615v-59.077h-68.923v-101.742c0-115.058-85.807-210.078-196.923-224.551v-136.476h-59.077v134.565h-334.769v-134.565h-59.077v136.476c-111.115 14.474-196.923 109.493-196.923 224.551v101.742h-68.923v59.077h68.923v233.027c0 125.071 101.39 226.462 226.462 226.462h160.819v-128h-59.077v68.923h-101.742zM128 431.588v-101.742c0-92.444 74.941-167.385 167.385-167.385h393.846c92.444 0 167.385 74.941 167.385 167.385v101.742h-728.615zM525.127 694.154h-196.922v59.077h196.922v-59.077z" />
<glyph unicode="&#xe907;" glyph-name="icon3" d="M9.846 950.154h1007.695v-403.015h-59.077v343.938h-889.541v-343.938h-59.077v403.015zM412.058 551.554h-271.035v59.077h271.035v-59.077zM886.367 551.554h-271.033v59.077h271.033v-59.077zM9.846 474.821h1007.695v-538.821h-59.077v276.031h-889.541v-276.031h-59.077v538.821zM68.923 271.108h889.541v144.636h-889.541v-144.636z" />
<glyph unicode="&#xe908;" glyph-name="icon2" horiz-adv-x="990" d="M186.867 773.067h616.052v-616.053h-616.052v616.053zM238.067 721.867v-513.653h513.652v513.653h-513.652zM238.067 960v-118.916h-51.2v118.916h51.2zM118.933 721.867h-118.916v51.2h118.916v-51.2zM989.867 721.867h-118.917v51.2h118.917v-51.2zM751.8 841.1v118.916h51.2v-118.916h-51.2zM751.8-29.901v118.917h51.2v-118.917h-51.2zM870.932 208.234h118.917v-51.2h-118.917v51.2zM0 208.234h118.916v-51.2h-118.916v51.2zM238.067 89.033v-118.917h-51.2v118.917h51.2z" />
<glyph unicode="&#xe909;" glyph-name="icon1" d="M9.481 950.519h307.956l210.339-140.227-31.554-47.335-196.010 130.673h-233.843v-891.259h349.461v417.185h-140.868v56.889h338.625v-56.889h-140.868v-417.185h484.91v417.185h-140.868v56.889h140.868v417.185h-276.317v56.889h333.206v-1005.037h-1005.037v1005.037z" />
<glyph unicode="&#xe90a;" glyph-name="instagram" d="M774.532 768.929c-32.227 0-58.353-26.126-58.353-58.356s26.127-58.357 58.353-58.357c32.234 0 58.361 26.127 58.361 58.357s-26.127 58.356-58.361 58.356zM514.939 288.87c-89.525 0-162.1 72.576-162.1 162.101s72.575 162.101 162.1 162.101c89.525 0 162.101-72.577 162.101-162.101s-72.577-162.101-162.101-162.101zM514.954 700.714c-137.918 0-249.721-111.803-249.721-249.721s111.803-249.719 249.721-249.719c137.919 0 249.726 111.802 249.726 249.719s-111.807 249.721-249.726 249.721zM514.943 937.286c-132.073 0-148.631-0.56-200.501-2.926-51.761-2.361-87.112-10.582-118.045-22.605-31.98-12.428-59.098-29.054-86.135-56.089-27.035-27.037-43.661-54.157-56.091-86.135-12.020-30.934-20.242-66.284-22.605-118.046-2.365-51.869-2.924-68.428-2.924-200.5s0.56-148.631 2.924-200.501c2.363-51.762 10.584-87.112 22.605-118.045 12.43-31.978 29.056-59.099 56.091-86.133 27.037-27.041 54.155-43.666 86.135-56.093 30.933-12.025 66.284-20.246 118.045-22.601 51.869-2.37 68.428-2.926 200.501-2.926s148.633 0.556 200.502 2.926c51.757 2.355 87.115 10.576 118.047 22.601 31.978 12.427 59.099 29.052 86.133 56.093 27.034 27.034 43.659 54.155 56.093 86.133 12.017 30.932 20.239 66.282 22.601 118.045 2.363 51.869 2.926 68.428 2.926 200.501s-0.563 148.631-2.926 200.5c-2.363 51.762-10.584 87.112-22.601 118.046-12.434 31.978-29.060 59.098-56.093 86.135-27.034 27.034-54.155 43.661-86.133 56.089-30.932 12.022-66.289 20.244-118.047 22.605-51.869 2.367-68.43 2.926-200.502 2.926zM514.946 849.679c129.849 0 145.23-0.496 196.506-2.836 47.419-2.162 73.166-10.084 90.303-16.742 22.696-8.823 38.897-19.362 55.91-36.378 17.020-17.016 27.56-33.218 36.381-55.917 6.656-17.136 14.585-42.885 16.742-90.297 2.341-51.28 2.838-66.659 2.838-196.508s-0.497-145.228-2.838-196.506c-2.158-47.413-10.086-73.166-16.742-90.296-8.821-22.704-19.361-38.905-36.381-55.918-17.013-17.020-33.214-27.553-55.91-36.381-17.137-6.656-42.884-14.577-90.303-16.742-51.269-2.341-66.648-2.831-196.506-2.831-129.856 0-145.235 0.49-196.504 2.831-47.416 2.165-73.166 10.086-90.301 16.742-22.699 8.828-38.899 19.361-55.917 36.381-17.014 17.013-27.554 33.214-36.376 55.918-6.66 17.13-14.582 42.884-16.744 90.294-2.34 51.28-2.836 66.66-2.836 196.509s0.496 145.227 2.836 196.506c2.162 47.414 10.084 73.163 16.744 90.299 8.822 22.699 19.36 38.901 36.376 55.917 17.018 17.016 33.218 27.554 55.917 36.378 17.136 6.658 42.885 14.58 90.299 16.742 51.278 2.34 66.659 2.836 196.506 2.836z" />
<glyph unicode="&#xe90b;" glyph-name="twiter" horiz-adv-x="1280" d="M1207.373 767.856c-41.737-18.528-86.63-31.045-133.7-36.647 48.043 28.811 84.975 74.429 102.332 128.771-44.979-26.683-94.78-46.026-147.814-56.468-42.462 45.228-102.972 73.489-169.916 73.489-128.561 0-232.794-104.233-232.794-232.791 0-18.226 2.039-36.009 6.028-53.047-193.502 9.716-365.019 102.407-479.855 243.234-20.035-34.377-31.506-74.359-31.506-117.034 0-80.759 41.097-152.015 103.578-193.768-38.172 1.206-74.075 11.684-105.457 29.112-0.036-0.957-0.036-1.933-0.036-2.925 0-112.779 80.263-206.871 186.765-228.271-19.538-5.319-40.104-8.155-61.327-8.155-15.017 0-29.591 1.454-43.81 4.184 29.626-92.495 115.58-159.798 217.455-161.677-79.677-62.447-180.046-99.661-289.119-99.661-18.794 0-37.321 1.101-55.53 3.26 103.028-66.057 225.398-104.602 356.846-104.602 428.207 0 662.362 354.719 662.362 662.365 0 10.089-0.213 20.141-0.674 30.124 45.5 32.817 84.949 73.808 116.173 120.509z" />
<glyph unicode="&#xe90c;" glyph-name="facebook" horiz-adv-x="512" d="M144.532 748.914v-133.917h-98.103v-163.743h98.103v-486.568h201.523v486.568h135.235c0 0 12.665 78.521 18.793 164.37h-153.261v111.947c0 16.729 21.97 39.239 43.691 39.239h109.796v170.476h-149.294c-211.466 0-206.484-163.894-206.484-188.372z" />
<glyph unicode="&#xe90d;" glyph-name="phon" d="M222.090 883.313c-5.474 0-11.012-1.601-15.782-4.93l-106.086-73.691c-21.928-15.237-29.739-44.464-18.182-68.024 74.075-150.678 175.551-290.953 301.613-416.949 125.933-125.837 266.179-227.187 416.822-301.197 23.59-11.622 52.851-3.808 68.122 18.15l73.786 106.086c8.582 12.288 5.664 29.51-6.528 38.285l-103.078 74.522c-11.494 8.326-25.958 11.014-39.725 7.526l-95.942-24.685c-38.253-9.824-78.618-0.256-108.005 25.677-41.711 36.877-94.498 86.493-134.481 126.476-40.078 40.046-89.76 92.801-126.573 134.416-25.962 29.387-35.565 69.722-25.706 107.975l24.713 95.875c3.521 13.732 0.769 28.17-7.523 39.662l-74.843 103.397c-5.41 7.427-13.957 11.428-22.6 11.428zM823.258-63.526c-19.238 0-38.637 4.224-56.691 13.094-158.2 77.722-305.325 184-437.212 315.827-132.048 131.917-238.454 279.107-316.242 437.404-28.202 57.332-9.603 128.27 43.248 164.988l106.087 73.691c46.481 32.3 111.272 21.256 144.468-24.553l74.843-103.398c21.768-30.091 28.939-67.928 19.688-103.845l-24.713-95.875c-3.489-13.54-0.161-27.722 8.867-37.933 35.853-40.527 84.254-91.937 123.308-130.991 38.99-38.958 90.433-87.295 131.055-123.213 10.246-9.029 24.454-12.293 37.996-8.869l95.942 24.683c35.981 9.252 73.818 2.081 103.878-19.652l103.104-74.528c45.875-33.158 56.89-97.952 24.589-144.403l-73.818-106.118c-25.197-36.205-66.458-56.307-108.397-56.307z" />
<glyph unicode="&#xe90e;" glyph-name="email" horiz-adv-x="1365" d="M742.496 356.42l399.785 283.477c23.040 16.384 28.501 48.299 12.117 71.424s-48.299 28.501-71.424 12.117l-400.894-283.477-399.787 283.477c-23.040 16.299-55.125 10.923-71.339-12.117-16.384-23.125-10.923-55.040 12.117-71.424l399.701-283.477c17.92-12.715 38.912-19.115 59.904-19.115 20.907 0 41.984 6.4 59.819 19.115zM171.004 857.583c-37.803 0-68.608-30.805-68.608-68.693v-681.898c0-37.804 30.805-68.609 68.608-68.609h1023.236c37.888 0 68.693 30.805 68.693 68.609v681.898c0 37.888-30.805 68.693-68.693 68.693h-1023.236zM1194.24-64h-1023.232c-94.293 0-171.008 76.715-171.008 171.008v681.899c0 94.293 76.715 171.093 171.008 171.093h1023.232c94.293 0 171.093-76.8 171.093-171.093v-681.899c0-94.293-76.8-171.008-171.093-171.008z" />
<glyph unicode="&#xe90f;" glyph-name="clip" horiz-adv-x="1170" d="M254.19 407.281l475.857 460.24c111.374 111.377 268.741 125.536 370.292 23.983 92.299-92.295 74.481-215.768-22.711-334.109-4.286-5.217-8.755-10.307-13.224-15.090l-441.419-457.43c-160.837-165.266-401.823-199.914-533.069-68.667-135.229 135.227-118.631 331.859 54.58 518.307l12.639 13.3 418.941 397.649 64.592-68.051-417.589-396.313c-150.632-155.055-165.417-299.948-66.819-398.552 86.917-86.916 260.843-64.922 387.731 56.123l4.214 4.176 442.581 458.296c5.069 5.067 9.852 10.339 14.336 15.8 70.115 85.374 80.406 156.686 28.877 208.217-59.516 59.516-152.671 53.729-228.747-15.543l-9.421-8.989-476.366-460.744c-30.022-30.574-29.853-79.696 0.511-110.059 28.499-28.5 73.523-30.402 103.545-6.396l6.192 5.538 398.646 419.569 68.016-64.626-399.48-420.428c-67.175-67.174-176.087-67.174-243.262 0-64.376 64.373-67.058 167.083-8.046 234.654l8.046 8.608 32.866-32.866-32.307 33.403z" />
<glyph unicode="&#xe910;" glyph-name="plus" horiz-adv-x="975" d="M446.81-28.487v966.868h73.143v-966.868h-73.143zM-0.012 491.524h966.868v-73.142h-966.868v73.142z" />
<glyph unicode="&#xe911;" glyph-name="arrow-down" horiz-adv-x="1365" d="M0 692.205l160.906 160.906 488.437-488.436 488.435 488.436 160.905-160.906-649.34-649.341-649.342 649.341z" />
<glyph unicode="&#xe912;" glyph-name="arrow-right" horiz-adv-x="1109" d="M819.052 448l-371.192 371.192 120.679 120.68 491.873-491.872-491.873-491.87-120.679 120.678 371.192 371.191zM898.918 372.417h-810.668v128h810.668v-128z" />
<glyph unicode="&#xe913;" glyph-name="adress" horiz-adv-x="896" d="M419.352 636.594c-49.213 0-89.274-42.045-89.274-93.754 0-51.677 40.061-93.722 89.274-93.722s89.275 42.045 89.275 93.722c0 51.709-40.061 93.754-89.275 93.754zM419.351 372.308c-91.578 0-166.070 76.507-166.070 170.549 0 94.010 74.492 170.549 166.070 170.549s166.038-76.539 166.038-170.549c0-94.042-74.46-170.549-166.038-170.549zM419.357 883.219c-91.322 0-177.269-36.861-241.969-103.866-134.456-139.191-134.456-365.609 0-504.767 21.759-22.528 177.908-180.627 241.969-245.491 64.060 64.864 220.211 222.963 241.967 245.491 134.458 139.158 134.458 365.576 0 504.767-64.698 67.004-150.645 103.866-241.967 103.866zM419.35-64c-10.271 0-20.095 4.128-27.326 11.456 0 0-242.321 245.229-269.871 273.741-162.87 168.599-162.87 442.886 0 611.515 79.291 82.043 184.852 127.288 297.197 127.288s217.907-45.245 297.201-127.288c162.867-168.629 162.867-442.916 0-611.515-27.552-28.512-269.875-273.741-269.875-273.741-7.231-7.328-17.055-11.456-27.326-11.456z" />
<glyph unicode="&#xe914;" glyph-name="gift" horiz-adv-x="910" d="M133.68 587.333c-26.701 0-48.346-21.646-48.346-48.346v-455.064c0-26.704 21.645-48.344 48.346-48.344h637.091c26.698 0 48.344 21.641 48.344 48.344v455.064c0 26.701-21.646 48.346-48.344 48.346h-637.091zM0 538.987c0 73.829 59.851 133.68 133.68 133.68h637.091c73.83 0 133.678-59.851 133.678-133.68v-455.064c0-73.83-59.847-133.678-133.678-133.678h-637.091c-73.829 0-133.68 59.847-133.68 133.678v455.064zM280.618 942.335c34.759 6.914 70.787 3.365 103.529-10.197s60.727-36.529 80.416-65.996c19.689-29.467 30.198-64.11 30.198-99.55 0-23.564-19.102-42.667-42.667-42.667s-42.667 19.103-42.667 42.667c0 18.562-5.504 36.708-15.817 52.142s-24.971 27.463-42.12 34.567c-17.149 7.103-36.020 8.962-54.225 5.341s-34.929-12.56-48.055-25.685c-13.125-13.126-22.064-29.848-25.685-48.055s-1.762-37.076 5.341-54.225c7.104-17.149 19.133-31.807 34.567-42.12s33.58-15.817 52.142-15.817c23.564 0 42.667-19.103 42.667-42.667s-19.103-42.667-42.667-42.667c-35.44 0-70.084 10.509-99.55 30.198s-52.434 47.674-65.996 80.416c-13.562 32.742-17.11 68.771-10.197 103.529s23.98 66.687 49.039 91.746c25.060 25.059 56.988 42.125 91.746 49.039zM520.17 932.138c32.742 13.562 68.772 17.111 103.532 10.197s66.685-23.98 91.745-49.039c25.060-25.060 42.126-56.988 49.038-91.746s3.368-70.787-10.194-103.529c-13.562-32.742-36.528-60.727-65.997-80.416s-64.114-30.198-99.55-30.198c-23.566 0-42.668 19.102-42.668 42.667s19.103 42.667 42.668 42.667c18.563 0 36.705 5.504 52.139 15.817s27.466 24.971 34.566 42.12c7.105 17.149 8.966 36.020 5.342 54.225-3.618 18.206-12.555 34.929-25.685 48.055-13.124 13.125-29.85 22.064-48.054 25.685s-37.074 1.762-54.224-5.341c-17.149-7.104-31.807-19.133-42.12-34.567s-15.817-33.58-15.817-52.142c0-23.564-19.103-42.667-42.667-42.667s-42.667 19.103-42.667 42.667c0 35.44 10.509 70.084 30.198 99.55s47.674 52.434 80.416 65.996zM452.222 809.389c23.564 0 42.667-19.103 42.667-42.667v-773.612c0-23.563-19.103-42.667-42.667-42.667s-42.667 19.103-42.667 42.667v773.612c0 23.564 19.103 42.667 42.667 42.667zM0 311.666c0 23.563 19.102 42.667 42.667 42.667h819.115c23.563 0 42.667-19.103 42.667-42.667s-19.103-42.667-42.667-42.667h-819.115c-23.564 0-42.667 19.103-42.667 42.667z" />
<glyph unicode="&#xe915;" glyph-name="adress-bold" d="M512.021 958.208c-112.897-0.124-221.137-45.025-300.972-124.852s-124.747-188.062-124.883-300.961c0-109.653 84.907-281.259 252.373-510.037 19.936-27.311 46.040-49.532 76.186-64.849s63.482-23.3 97.296-23.3c33.818 0 67.153 7.983 97.297 23.3 30.148 15.317 56.252 37.538 76.186 64.849 167.467 228.779 252.373 400.384 252.373 510.037-0.132 112.899-45.047 221.134-124.881 300.961s-188.075 124.728-300.975 124.852zM512.021 362.667c-33.754 0-66.752 10.010-94.816 28.762-28.066 18.756-49.941 45.41-62.858 76.595s-16.297 65.499-9.712 98.606c6.585 33.106 22.839 63.516 46.708 87.384s54.276 40.123 87.386 46.708c33.105 6.585 67.422 3.206 98.607-9.712s57.839-34.792 76.591-62.858c18.752-28.066 28.762-61.063 28.762-94.817 0-45.265-17.98-88.675-49.984-120.679-32.009-32.009-75.418-49.988-120.683-49.988z" />
</font>
</defs>
</svg>
