<svg width="14" height="14" viewBox="0 0 14 14" fill="none" xmlns="http://www.w3.org/2000/svg">
<path fill-rule="evenodd" clip-rule="evenodd" d="M10.5893 2.6123C10.1487 2.6123 9.7915 2.96949 9.7915 3.41013C9.7915 3.85077 10.1487 4.20798 10.5893 4.20798C11.03 4.20798 11.3872 3.85077 11.3872 3.41013C11.3872 2.96949 11.03 2.6123 10.5893 2.6123ZM7.04018 9.17561C5.8162 9.17561 4.82397 8.18336 4.82397 6.95939C4.82397 5.73542 5.8162 4.74316 7.04018 4.74316C8.26415 4.74316 9.25641 5.73542 9.25641 6.95939C9.25641 8.18336 8.26415 9.17561 7.04018 9.17561ZM7.04038 3.54492C5.15478 3.54492 3.62622 5.07348 3.62622 6.95907C3.62622 8.84466 5.15478 10.3732 7.04038 10.3732C8.92599 10.3732 10.4546 8.84466 10.4546 6.95907C10.4546 5.07348 8.92599 3.54492 7.04038 3.54492ZM7.04024 0.310547C5.23456 0.310547 5.00817 0.3182 4.29902 0.350557C3.59135 0.382834 3.10804 0.495237 2.68513 0.659605C2.2479 0.829515 1.87715 1.05683 1.5075 1.42644C1.13788 1.79609 0.910571 2.16687 0.740634 2.60407C0.576292 3.027 0.463889 3.51029 0.431585 4.21798C0.399255 4.92713 0.391602 5.15352 0.391602 6.95919C0.391602 8.76487 0.399255 8.99126 0.431585 9.70041C0.463889 10.4081 0.576292 10.8914 0.740634 11.3143C0.910571 11.7515 1.13788 12.1223 1.5075 12.4919C1.87715 12.8616 2.2479 13.0889 2.68513 13.2588C3.10804 13.4232 3.59135 13.5356 4.29902 13.5678C5.00817 13.6002 5.23456 13.6078 7.04024 13.6078C8.84591 13.6078 9.07233 13.6002 9.78148 13.5678C10.4891 13.5356 10.9725 13.4232 11.3954 13.2588C11.8326 13.0889 12.2034 12.8616 12.573 12.4919C12.9426 12.1223 13.1699 11.7515 13.3399 11.3143C13.5042 10.8914 13.6166 10.4081 13.6489 9.70041C13.6812 8.99126 13.6889 8.76487 13.6889 6.95919C13.6889 5.15352 13.6812 4.92713 13.6489 4.21798C13.6166 3.51029 13.5042 3.027 13.3399 2.60407C13.1699 2.16687 12.9426 1.79609 12.573 1.42644C12.2034 1.05683 11.8326 0.829515 11.3954 0.659605C10.9725 0.495237 10.4891 0.382834 9.78148 0.350557C9.07233 0.3182 8.84591 0.310547 7.04024 0.310547ZM7.04028 1.5083C8.81556 1.5083 9.02585 1.51508 9.72689 1.54707C10.3752 1.57663 10.7272 1.68494 10.9615 1.77597C11.2718 1.8966 11.4933 2.04068 11.7259 2.27332C11.9586 2.50596 12.1027 2.72747 12.2233 3.03781C12.3143 3.27209 12.4227 3.62413 12.4522 4.27234C12.4842 4.97344 12.491 5.1837 12.491 6.95897C12.491 8.73424 12.4842 8.94451 12.4522 9.64558C12.4227 10.2938 12.3143 10.6459 12.2233 10.8801C12.1027 11.1905 11.9586 11.412 11.7259 11.6446C11.4933 11.8773 11.2718 12.0213 10.9615 12.142C10.7272 12.233 10.3752 12.3413 9.72689 12.3709C9.02595 12.4029 8.81569 12.4096 7.04028 12.4096C5.2649 12.4096 5.05464 12.4029 4.3537 12.3709C3.70543 12.3413 3.35339 12.233 3.11911 12.142C2.80877 12.0213 2.58729 11.8773 2.35462 11.6446C2.122 11.412 1.9779 11.1905 1.85729 10.8801C1.76624 10.6459 1.65793 10.2938 1.62837 9.64561C1.59638 8.94451 1.5896 8.73424 1.5896 6.95897C1.5896 5.1837 1.59638 4.97344 1.62837 4.27237C1.65793 3.62413 1.76624 3.27209 1.85729 3.03781C1.9779 2.72747 2.12198 2.50596 2.35462 2.27332C2.58729 2.04068 2.80877 1.8966 3.11911 1.77597C3.35339 1.68494 3.70543 1.57663 4.35367 1.54707C5.05474 1.51508 5.26503 1.5083 7.04028 1.5083Z" fill="white"/>
</svg>
