<svg width="310" height="67" viewBox="0 0 310 67" fill="none" xmlns="http://www.w3.org/2000/svg">
<path d="M307.026 25.2308C307.099 26.5797 306.324 28.0821 304.445 29.7246C302.579 31.3561 299.739 33.0193 295.984 34.6797C288.48 37.9968 277.494 41.2283 263.81 44.1897C236.454 50.1101 198.451 54.9223 156.29 57.2157C114.13 59.5092 75.8291 58.8478 47.992 55.93C34.0675 54.4704 22.7958 52.4496 14.9771 49.966C11.0636 48.7229 8.06019 47.3775 6.02778 45.9581C3.98174 44.5291 3.04858 43.1196 2.9752 41.7707C2.90182 40.4219 3.67658 38.9195 5.55554 37.277C7.42198 35.6454 10.2617 33.9822 14.0173 32.3219C21.5204 29.0048 32.5064 25.7733 46.1904 22.8118C73.5468 16.8915 111.55 12.0793 153.71 9.78585C195.871 7.49238 234.172 8.15374 262.009 11.0716C275.933 12.5312 287.205 14.5519 295.024 17.0356C298.937 18.2787 301.941 19.624 303.973 21.0435C306.019 22.4725 306.952 23.882 307.026 25.2308Z" stroke="#958B61" stroke-width="1.5"/>
</svg>
