<svg width="16" height="12" viewBox="0 0 16 12" fill="none" xmlns="http://www.w3.org/2000/svg">
<path fill-rule="evenodd" clip-rule="evenodd" d="M8.70112 7.0732L13.3861 3.7512C13.6561 3.5592 13.7201 3.1852 13.5281 2.9142C13.3361 2.6432 12.9621 2.5802 12.6911 2.7722L7.99312 6.0942L3.30812 2.7722C3.03812 2.5812 2.66212 2.6442 2.47212 2.9142C2.28012 3.1852 2.34412 3.5592 2.61412 3.7512L7.29812 7.0732C7.50812 7.2222 7.75412 7.2972 8.00012 7.2972C8.24512 7.2972 8.49212 7.2222 8.70112 7.0732ZM2.00395 1.2002C1.56095 1.2002 1.19995 1.5612 1.19995 2.0052V9.99619C1.19995 10.4392 1.56095 10.8002 2.00395 10.8002H13.995C14.439 10.8002 14.8 10.4392 14.8 9.99619V2.0052C14.8 1.5612 14.439 1.2002 13.995 1.2002H2.00395ZM13.995 12H2.004C0.899 12 0 11.101 0 9.996V2.005C0 0.9 0.899 0 2.004 0H13.995C15.1 0 16 0.9 16 2.005V9.996C16 11.101 15.1 12 13.995 12Z" fill="white"/>
</svg>
