<svg width="25" height="26" viewBox="0 0 25 26" fill="none" xmlns="http://www.w3.org/2000/svg">
<path fill-rule="evenodd" clip-rule="evenodd" d="M7.5 1.75C5.15279 1.75 3.25 3.65279 3.25 6V11.9167H25V13.4167H23.25V16C23.25 18.9214 21.0713 21.334 18.25 21.7015V25.1667H16.75V21.75H8.25V25.1667H6.75V21.7015C3.92873 21.334 1.75 18.9214 1.75 16V13.4167H0V11.9167H1.75V6C1.75 2.82436 4.32436 0.25 7.5 0.25H11.5833V3.5H10.0833V1.75H7.5ZM3.25 13.4167V16C3.25 18.3472 5.15279 20.25 7.5 20.25H17.5C19.8472 20.25 21.75 18.3472 21.75 16V13.4167H3.25ZM13.3333 6.75H8.33333V5.25H13.3333V6.75Z" fill="white"/>
</svg>
