<svg width="153" height="33" viewBox="0 0 153 33" fill="none" xmlns="http://www.w3.org/2000/svg">
<path fill-rule="evenodd" clip-rule="evenodd" d="M29.0252 16.3032C29.0252 38.0408 26.9028 38.0408 26.9028 16.3032C26.9088 -5.4344 29.0252 -5.4344 29.0252 16.3032Z" fill="white"/>
<path fill-rule="evenodd" clip-rule="evenodd" d="M80.0394 28.2899C85.145 28.2899 88.0744 26.0839 90.2446 23.0887L85.438 19.663C84.0569 21.343 82.64 22.461 80.2367 22.461C77.0084 22.461 74.7366 19.7587 74.7366 16.3032C74.7366 12.8775 77.0084 10.1454 80.2367 10.1454C82.4428 10.1454 83.9912 11.1677 85.3064 12.8118L89.9816 9.1888C87.9429 6.3551 85.0075 4.31641 80.3025 4.31641C73.3197 4.31641 68.1543 9.5834 68.1543 16.3032C68.1483 23.2501 73.4512 28.2899 80.0394 28.2899Z" fill="white"/>
<path fill-rule="evenodd" clip-rule="evenodd" d="M46.387 28.29C50.5719 28.29 53.9616 26.7416 56.3949 24.7328V14.3602H45.7951V19.0354H50.3387V21.8333C49.3821 22.461 48.1984 22.7898 46.65 22.7898C42.9972 22.7898 40.3966 20.1235 40.3966 16.3989C40.3966 12.8118 42.9673 10.008 46.2913 10.008C48.5631 10.008 50.2072 10.7971 51.8572 12.1841L55.6117 7.67045C53.1725 5.56602 50.3088 4.31055 46.2614 4.31055C39.1172 4.31055 33.8442 9.57755 33.8442 16.2973C33.8442 23.3458 39.2069 28.29 46.387 28.29Z" fill="white"/>
<path fill-rule="evenodd" clip-rule="evenodd" d="M11.8851 28.2899C16.9907 28.2899 19.9201 26.0839 22.0903 23.0887L17.2837 19.663C15.9026 21.343 14.4857 22.461 12.0824 22.461C8.85406 22.461 6.58226 19.7587 6.58226 16.3032C6.58226 12.8775 8.85406 10.1454 12.0824 10.1454C14.2885 10.1454 15.8369 11.1677 17.1521 12.8118L21.8273 9.1888C19.7886 6.3551 16.8532 4.31641 12.1482 4.31641C5.16537 4.31641 5.05006e-06 9.5834 5.05006e-06 16.3032C-0.00597338 23.2501 5.2969 28.2899 11.8851 28.2899Z" fill="white"/>
<path fill-rule="evenodd" clip-rule="evenodd" d="M63.3357 16.3032C63.3357 38.0408 61.2134 38.0408 61.2134 16.3032C61.2134 -5.4344 63.3357 -5.4344 63.3357 16.3032Z" fill="white"/>
<path fill-rule="evenodd" clip-rule="evenodd" d="M106.398 11.7898C107.414 11.7898 108.036 11.4192 108.604 10.8273L107.988 10.2056C107.522 10.642 107.098 10.911 106.428 10.911C105.388 10.911 104.634 10.0382 104.634 8.974C104.634 7.8919 105.388 7.037 106.428 7.037C107.05 7.037 107.516 7.306 107.952 7.7126L108.568 7.0071C108.048 6.5109 107.438 6.1582 106.44 6.1582C104.79 6.1582 103.636 7.4256 103.636 8.974C103.63 10.5583 104.808 11.7898 106.398 11.7898ZM112.938 11.7002V9.2669C112.938 8.1729 112.347 7.5332 111.133 7.5332C110.463 7.5332 110.021 7.6707 109.573 7.874L109.83 8.6273C110.2 8.4718 110.547 8.3702 111.001 8.3702C111.653 8.3702 112.012 8.6811 112.012 9.249V9.3267C111.695 9.2251 111.372 9.1534 110.876 9.1534C109.919 9.1534 109.214 9.5898 109.214 10.4985C109.214 11.3355 109.895 11.7779 110.673 11.7779C111.294 11.7779 111.719 11.5208 112 11.186V11.6882H112.938V11.7002ZM112.03 10.2115C112.03 10.7197 111.563 11.0724 110.942 11.0724C110.499 11.0724 110.147 10.8572 110.147 10.4686C110.147 10.0561 110.499 9.817 111.085 9.817C111.45 9.817 111.785 9.8887 112.024 9.9784V10.2115H112.03ZM114.056 11.7002H114.995V10.1338C114.995 9.0457 115.569 8.5077 116.394 8.5077H116.448V7.5153C115.724 7.4854 115.252 7.9039 114.995 8.5196V7.593H114.056V11.7002ZM120.519 11.7002V9.2669C120.519 8.1729 119.927 7.5332 118.714 7.5332C118.044 7.5332 117.602 7.6707 117.153 7.874L117.41 8.6273C117.781 8.4718 118.128 8.3702 118.582 8.3702C119.234 8.3702 119.592 8.6811 119.592 9.249V9.3267C119.276 9.2251 118.953 9.1534 118.457 9.1534C117.5 9.1534 116.795 9.5898 116.795 10.4985C116.795 11.3355 117.476 11.7779 118.253 11.7779C118.875 11.7779 119.3 11.5208 119.58 11.186V11.6882H120.519V11.7002ZM119.604 10.2115C119.604 10.7197 119.138 11.0724 118.516 11.0724C118.074 11.0724 117.721 10.8572 117.721 10.4686C117.721 10.0561 118.074 9.817 118.66 9.817C119.025 9.817 119.359 9.8887 119.598 9.9784V10.2115H119.604ZM123.012 11.7659C123.365 11.7659 123.628 11.6882 123.861 11.5567V10.7914C123.676 10.8871 123.49 10.929 123.275 10.929C122.958 10.929 122.767 10.7795 122.767 10.4148V8.4001H123.873V7.593H122.767V6.4631H121.828V7.593H121.308V8.4001H121.828V10.5583C121.828 11.461 122.319 11.7659 123.012 11.7659ZM106.452 19.1134C107.414 19.1134 108.186 18.7248 108.724 18.2645V15.9807H106.41V16.8117H107.803V17.8281C107.468 18.0792 107.002 18.2406 106.488 18.2406C105.376 18.2406 104.64 17.4156 104.64 16.2976C104.64 15.2394 105.4 14.3606 106.404 14.3606C107.098 14.3606 107.51 14.5878 107.929 14.9405L108.532 14.2171C107.97 13.7448 107.39 13.4758 106.44 13.4758C104.802 13.4758 103.636 14.7671 103.636 16.2916C103.63 17.9058 104.748 19.1134 106.452 19.1134ZM109.907 19.0237H110.846V13.3502H109.907V19.0237ZM114.027 19.1134C115.294 19.1134 116.227 18.1389 116.227 16.9731C116.227 15.7834 115.3 14.8269 114.044 14.8269C112.783 14.8269 111.85 15.7954 111.85 16.9731C111.85 18.1569 112.777 19.1134 114.027 19.1134ZM114.044 18.3004C113.315 18.3004 112.795 17.6965 112.795 16.9791C112.795 16.2498 113.279 15.6579 114.033 15.6579C114.774 15.6579 115.294 16.2557 115.294 16.9791C115.288 17.7025 114.804 18.3004 114.044 18.3004ZM119.515 19.1074C120.495 19.1074 121.428 18.3362 121.428 16.9791C121.428 15.6041 120.489 14.8329 119.515 14.8329C118.857 14.8329 118.427 15.1736 118.122 15.6041V13.3502H117.183V19.0237H118.122V18.3841C118.409 18.7667 118.839 19.1074 119.515 19.1074ZM119.294 18.2944C118.654 18.2944 118.098 17.7743 118.098 16.9791C118.098 16.178 118.66 15.6519 119.294 15.6519C119.933 15.6519 120.465 16.172 120.465 16.9672C120.471 17.7862 119.939 18.2944 119.294 18.2944ZM125.834 19.0237V16.5905C125.834 15.4965 125.242 14.8568 124.028 14.8568C123.359 14.8568 122.916 14.9943 122.468 15.1976L122.725 15.9508C123.096 15.7954 123.443 15.6938 123.897 15.6938C124.549 15.6938 124.907 16.0046 124.907 16.5726V16.6503C124.59 16.5487 124.268 16.4769 123.771 16.4769C122.815 16.4769 122.109 16.9134 122.109 17.8221C122.109 18.6591 122.791 19.1074 123.568 19.1074C124.19 19.1074 124.614 18.8504 124.895 18.5156V19.0237H125.834ZM124.925 17.5351C124.925 18.0493 124.459 18.396 123.837 18.396C123.395 18.396 123.042 18.1808 123.042 17.7922C123.042 17.3797 123.395 17.1405 123.981 17.1405C124.345 17.1405 124.68 17.2123 124.919 17.302V17.5351H124.925ZM127.006 19.0237H127.944V13.3502H127.006V19.0237ZM106.398 26.437C107.414 26.437 108.036 26.0663 108.604 25.4745L107.988 24.8527C107.522 25.2891 107.098 25.5582 106.428 25.5582C105.388 25.5582 104.634 24.6853 104.634 23.6212C104.634 22.5391 105.388 21.6842 106.428 21.6842C107.05 21.6842 107.516 21.9532 107.952 22.3597L108.568 21.6543C108.048 21.1581 107.438 20.8053 106.44 20.8053C104.79 20.8053 103.636 22.0728 103.636 23.6212C103.63 25.2055 104.808 26.437 106.398 26.437ZM111.372 26.437C112.64 26.437 113.572 25.4625 113.572 24.2967C113.572 23.107 112.646 22.1505 111.39 22.1505C110.129 22.1505 109.196 23.119 109.196 24.2967C109.196 25.4805 110.117 26.437 111.372 26.437ZM111.384 25.6239C110.655 25.6239 110.135 25.0201 110.135 24.3027C110.135 23.5733 110.619 22.9815 111.372 22.9815C112.113 22.9815 112.634 23.5793 112.634 24.3027C112.634 25.0261 112.149 25.6239 111.384 25.6239ZM114.523 26.3473H115.461V24.0337C115.461 23.394 115.844 23.0173 116.388 23.0173C116.95 23.0173 117.267 23.382 117.267 24.0217V26.3533H118.205V23.7407C118.205 22.7842 117.667 22.1624 116.747 22.1624C116.107 22.1624 115.73 22.4972 115.467 22.8858V22.2461H114.529V26.3473H114.523ZM120.752 26.4251C121.607 26.4251 122.277 26.0006 122.277 25.1337C122.277 24.3804 121.601 24.1054 121.003 23.9201C120.979 23.9141 120.95 23.9022 120.926 23.8962C120.477 23.7467 120.077 23.6212 120.077 23.3462C120.077 23.0891 120.286 22.9217 120.651 22.9217C120.991 22.9217 121.41 23.0711 121.81 23.3103L122.181 22.6407C121.745 22.3537 121.189 22.1744 120.675 22.1744C119.856 22.1744 119.216 22.6467 119.216 23.4239C119.216 24.225 119.891 24.4701 120.495 24.6495C120.519 24.6554 120.543 24.6674 120.567 24.6734C121.015 24.8049 121.416 24.9125 121.416 25.2174C121.416 25.5044 121.183 25.6777 120.776 25.6777C120.358 25.6777 119.873 25.5044 119.431 25.1696L119.013 25.8093C119.521 26.2158 120.166 26.4251 120.752 26.4251ZM124.525 26.4131C124.877 26.4131 125.14 26.3354 125.374 26.2038V25.4386C125.188 25.5343 125.003 25.5761 124.794 25.5761C124.477 25.5761 124.292 25.4267 124.292 25.062V23.0472H125.398V22.2401H124.292V21.1162H123.353V22.2401H122.833V23.0472H123.353V25.2054C123.347 26.1082 123.837 26.4131 124.525 26.4131ZM126.336 26.3473H127.275V24.781C127.275 23.6929 127.849 23.1548 128.674 23.1548H128.727V22.1624C128.004 22.1325 127.532 22.551 127.275 23.1668V22.2401H126.336V26.3473ZM130.963 26.431C131.603 26.431 131.98 26.0962 132.249 25.7076V26.3473H133.187V22.2461H132.249V24.5598C132.249 25.1935 131.866 25.5761 131.322 25.5761C130.76 25.5761 130.443 25.2114 130.443 24.5717V22.2401H129.505V24.8527C129.499 25.8093 130.037 26.431 130.963 26.431ZM136.26 26.437C137.061 26.437 137.534 26.1201 137.94 25.6658L137.372 25.1038C137.079 25.4087 136.751 25.618 136.308 25.618C135.585 25.618 135.083 25.0261 135.083 24.2967C135.083 23.5674 135.579 22.9755 136.266 22.9755C136.739 22.9755 137.043 23.1847 137.33 23.4896L137.91 22.8619C137.528 22.4434 137.049 22.1564 136.272 22.1564C135.047 22.1564 134.144 23.1369 134.144 24.3027C134.138 25.4805 135.041 26.437 136.26 26.437ZM140.176 26.4131C140.523 26.4131 140.792 26.3354 141.025 26.2038V25.4386C140.84 25.5343 140.654 25.5761 140.439 25.5761C140.122 25.5761 139.931 25.4267 139.931 25.062V23.0472H141.037V22.2401H139.931V21.1162H138.992V22.2401H138.472V23.0472H138.992V25.2054C138.998 26.1082 139.489 26.4131 140.176 26.4131ZM142.006 21.6124H143.016V20.7156H142.006V21.6124ZM142.047 26.3473H142.986V22.2461H142.047V26.3473ZM146.161 26.437C147.428 26.437 148.361 25.4625 148.361 24.2967C148.361 23.107 147.434 22.1505 146.179 22.1505C144.917 22.1505 143.984 23.119 143.984 24.2967C143.99 25.4805 144.911 26.437 146.161 26.437ZM146.179 25.6239C145.449 25.6239 144.929 25.0201 144.929 24.3027C144.929 23.5733 145.413 22.9815 146.167 22.9815C146.902 22.9815 147.428 23.5793 147.428 24.3027C147.428 25.0261 146.938 25.6239 146.179 25.6239ZM149.317 26.3473H150.256V24.0337C150.256 23.394 150.638 23.0173 151.182 23.0173C151.744 23.0173 152.061 23.382 152.061 24.0217V26.3533H153V23.7407C153 22.7842 152.462 22.1624 151.541 22.1624C150.902 22.1624 150.525 22.4972 150.262 22.8858V22.2461H149.323V26.3473H149.317Z" fill="white"/>
</svg>
