<svg width="14" height="16" viewBox="0 0 14 16" fill="none" xmlns="http://www.w3.org/2000/svg">
<path fill-rule="evenodd" clip-rule="evenodd" d="M6.55238 5.05322C5.78343 5.05322 5.15747 5.71018 5.15747 6.51813C5.15747 7.32558 5.78343 7.98254 6.55238 7.98254C7.32134 7.98254 7.9473 7.32558 7.9473 6.51813C7.9473 5.71018 7.32134 5.05322 6.55238 5.05322ZM6.55236 9.18269C5.12145 9.18269 3.95752 7.98727 3.95752 6.51786C3.95752 5.04895 5.12145 3.85303 6.55236 3.85303C7.98327 3.85303 9.1467 5.04895 9.1467 6.51786C9.1467 7.98727 7.98327 9.18269 6.55236 9.18269ZM6.55246 1.19971C5.12555 1.19971 3.78263 1.77567 2.7717 2.82261C0.670828 4.99747 0.670828 8.53525 2.7717 10.7096C3.11168 11.0616 5.55152 13.5319 6.55246 14.5454C7.5534 13.5319 9.99325 11.0616 10.3332 10.7096C12.4341 8.53525 12.4341 4.99747 10.3332 2.82261C9.32229 1.77567 7.97937 1.19971 6.55246 1.19971ZM6.55234 16C6.39185 16 6.23836 15.9355 6.12537 15.821C6.12537 15.821 2.3391 11.9893 1.90863 11.5438C-0.63621 8.90944 -0.63621 4.62371 1.90863 1.98888C3.14755 0.706956 4.79695 0 6.55234 0C8.30773 0 9.95713 0.706956 11.1961 1.98888C13.7409 4.62371 13.7409 8.90944 11.1961 11.5438C10.7656 11.9893 6.97931 15.821 6.97931 15.821C6.86632 15.9355 6.71283 16 6.55234 16Z" fill="white"/>
</svg>
