<svg width="29" height="30" viewBox="0 0 29 30" fill="none" xmlns="http://www.w3.org/2000/svg">
<path fill-rule="evenodd" clip-rule="evenodd" d="M5.47461 5.47656H23.523V23.525H5.47461V5.47656ZM6.97461 6.97656V22.025H22.023V6.97656H6.97461Z" fill="white"/>
<path fill-rule="evenodd" clip-rule="evenodd" d="M6.97461 0V3.48387H5.47461V0H6.97461Z" fill="white"/>
<path fill-rule="evenodd" clip-rule="evenodd" d="M3.48437 6.97656L0.000503951 6.97656L0.000504017 5.47656L3.48438 5.47656L3.48437 6.97656Z" fill="white"/>
<path fill-rule="evenodd" clip-rule="evenodd" d="M29 6.97656L25.5161 6.97656L25.5161 5.47656L29 5.47656L29 6.97656Z" fill="white"/>
<path fill-rule="evenodd" clip-rule="evenodd" d="M22.0254 3.4834L22.0254 -0.000472677L23.5254 -0.000472546L23.5254 3.4834L22.0254 3.4834Z" fill="white"/>
<path fill-rule="evenodd" clip-rule="evenodd" d="M22.0254 29.001L22.0254 25.5171L23.5254 25.5171L23.5254 29.001L22.0254 29.001Z" fill="white"/>
<path fill-rule="evenodd" clip-rule="evenodd" d="M25.5156 22.0244L28.9995 22.0244L28.9995 23.5244L25.5156 23.5244L25.5156 22.0244Z" fill="white"/>
<path fill-rule="evenodd" clip-rule="evenodd" d="M1.96701e-07 22.0244L3.48387 22.0244L3.48387 23.5244L0 23.5244L1.96701e-07 22.0244Z" fill="white"/>
<path fill-rule="evenodd" clip-rule="evenodd" d="M6.97461 25.5166L6.97461 29.0005L5.47461 29.0005L5.47461 25.5166L6.97461 25.5166Z" fill="white"/>
</svg>
