<svg width="16" height="16" viewBox="0 0 16 16" fill="none" xmlns="http://www.w3.org/2000/svg">
<path fill-rule="evenodd" clip-rule="evenodd" d="M3.47015 1.19824C3.38462 1.19824 3.29809 1.22325 3.22356 1.27527L1.56596 2.42669C1.22334 2.66477 1.10129 3.12144 1.28186 3.48957C2.43928 5.84392 4.02485 8.03571 5.99456 10.0044C7.96227 11.9706 10.1536 13.5542 12.5074 14.7106C12.876 14.8922 13.3332 14.7701 13.5718 14.427L14.7247 12.7694C14.8588 12.5774 14.8132 12.3083 14.6227 12.1712L13.0121 11.0068C12.8325 10.8767 12.6065 10.8347 12.3914 10.8892L10.8923 11.2749C10.2946 11.4284 9.66389 11.2789 9.20472 10.8737C8.55299 10.2975 7.72819 9.52225 7.10346 8.89752C6.47724 8.2718 5.70096 7.4475 5.12575 6.79727C4.7201 6.3381 4.57005 5.70787 4.7241 5.11016L5.11024 3.61211C5.16526 3.39754 5.12225 3.17196 4.9927 2.99239L3.82328 1.37681C3.73875 1.26076 3.6052 1.19824 3.47015 1.19824ZM12.8634 15.9926C12.5628 15.9926 12.2597 15.9266 11.9776 15.788C9.50573 14.5736 7.2069 12.913 5.14616 10.8532C3.08291 8.79199 1.42031 6.49216 0.204873 4.01876C-0.235787 3.12294 0.0548184 2.01454 0.880617 1.44083L2.53822 0.289415C3.26448 -0.215267 4.27684 -0.0427047 4.79553 0.673054L5.96495 2.28864C6.30508 2.75881 6.41712 3.35002 6.27257 3.91122L5.88643 5.40927C5.83191 5.62084 5.88392 5.84242 6.02498 6.00198C6.58518 6.63521 7.34145 7.4385 7.95167 8.04872C8.56089 8.65744 9.36468 9.41271 9.99941 9.97392C10.1595 10.115 10.3815 10.166 10.5931 10.1125L12.0922 9.72683C12.6544 9.58227 13.2456 9.69431 13.7153 10.0339L15.3263 11.1984C16.0431 11.7165 16.2152 12.7289 15.7105 13.4547L14.5571 15.1128C14.1634 15.6785 13.5187 15.9926 12.8634 15.9926Z" fill="white"/>
</svg>
