<svg width="15" height="12" viewBox="0 0 15 12" fill="none" xmlns="http://www.w3.org/2000/svg">
<path fill-rule="evenodd" clip-rule="evenodd" d="M14.1489 2.25169C13.6598 2.46881 13.1337 2.6155 12.5821 2.68115C13.1451 2.34352 13.5779 1.80893 13.7813 1.17212C13.2542 1.48481 12.6706 1.71149 12.0491 1.83386C11.5515 1.30384 10.8424 0.972656 10.0579 0.972656C8.55132 0.972656 7.32984 2.19414 7.32984 3.70068C7.32984 3.91427 7.35373 4.12266 7.40048 4.32233C5.13288 4.20847 3.12291 3.12225 1.77718 1.47193C1.5424 1.87479 1.40797 2.34332 1.40797 2.84342C1.40797 3.78981 1.88958 4.62484 2.62177 5.11414C2.17444 5.10001 1.7537 4.97722 1.38595 4.77298C1.38553 4.7842 1.38553 4.79563 1.38553 4.80726C1.38553 6.12889 2.32611 7.23153 3.57418 7.48231C3.34522 7.54464 3.10421 7.57788 2.85551 7.57788C2.67953 7.57788 2.50874 7.56084 2.34211 7.52885C2.68929 8.61278 3.69656 9.40148 4.89041 9.4235C3.95669 10.1553 2.7805 10.5914 1.5023 10.5914C1.28206 10.5914 1.06494 10.5785 0.851562 10.5532C2.05892 11.3273 3.49295 11.779 5.03335 11.779C10.0514 11.779 12.7954 7.62214 12.7954 4.01691C12.7954 3.89868 12.7929 3.78088 12.7875 3.6639C13.3207 3.27932 13.783 2.79896 14.1489 2.25169Z" fill="white"/>
</svg>
